<svg width="1440" height="1287" viewBox="0 0 1440 1287" fill="none" xmlns="http://www.w3.org/2000/svg">
<g clip-path="url(#clip0_11_187)">
<rect width="1440" height="1287" fill="#121B27"/>
<path d="M1292.04 1034.47C1292.31 1033.5 1293.69 1033.5 1293.96 1034.47L1299.36 1053.93C1299.44 1054.2 1299.63 1054.43 1299.88 1054.56L1315.18 1062.1C1315.93 1062.47 1315.93 1063.53 1315.18 1063.9L1299.88 1071.44C1299.63 1071.57 1299.44 1071.8 1299.36 1072.07L1293.96 1091.53C1293.69 1092.5 1292.31 1092.5 1292.04 1091.53L1286.64 1072.07C1286.56 1071.8 1286.37 1071.57 1286.12 1071.44L1270.82 1063.9C1270.07 1063.53 1270.07 1062.47 1270.82 1062.1L1286.12 1054.56C1286.37 1054.43 1286.56 1054.2 1286.64 1053.93L1292.04 1034.47Z" fill="#F4B41A"/>
<path d="M618.036 759.472C618.307 758.495 619.693 758.495 619.964 759.472L625.362 778.926C625.439 779.2 625.628 779.429 625.884 779.555L641.182 787.103C641.926 787.47 641.926 788.53 641.182 788.897L625.884 796.445C625.628 796.571 625.439 796.8 625.362 797.074L619.964 816.528C619.693 817.505 618.307 817.505 618.036 816.528L612.638 797.074C612.561 796.8 612.372 796.571 612.116 796.445L596.818 788.897C596.074 788.53 596.074 787.47 596.818 787.103L612.116 779.555C612.372 779.429 612.561 779.2 612.638 778.926L618.036 759.472Z" fill="#F4B41A"/>
<path d="M604.5 138.25C603.5 147.083 598.45 164.75 586.25 164.75" stroke="#175CE1" stroke-width="3.75" stroke-linecap="round"/>
<path d="M604.5 184C605.5 174.333 610.55 155 622.75 155" stroke="#175CE1" stroke-width="3.75" stroke-linecap="round"/>
<path d="M604.5 138C605.5 143.667 610.55 155 622.75 155" stroke="#175CE1" stroke-width="3.75" stroke-linecap="round"/>
<path d="M604.5 184C603.5 177.667 598.45 165 586.25 165" stroke="#175CE1" stroke-width="3.75" stroke-linecap="round"/>
<path d="M1269.25 70.25C1268.25 79.0833 1263.2 96.75 1251 96.75" stroke="#175CE1" stroke-width="3.75" stroke-linecap="round"/>
<path d="M1269.25 116C1270.25 106.333 1275.3 87 1287.5 87" stroke="#175CE1" stroke-width="3.75" stroke-linecap="round"/>
<path d="M1269.25 70C1270.25 75.6667 1275.3 87 1287.5 87" stroke="#175CE1" stroke-width="3.75" stroke-linecap="round"/>
<path d="M1269.25 116C1268.25 109.667 1263.2 97 1251 97" stroke="#175CE1" stroke-width="3.75" stroke-linecap="round"/>
<path d="M236.5 459.859C259.733 458.784 393.807 456.277 404.613 459.859C418.121 464.336 272.97 472.931 265.676 476.155C259.841 478.734 379.678 484.572 386.702 485.288C393.726 486.004 303.226 497.358 304.307 522" stroke="#4A3AFF" stroke-width="5.55173" stroke-linecap="round"/>
<g filter="url(#filter0_if_11_187)">
<circle cx="170" cy="560" r="70" fill="url(#paint1_linear_11_187)"/>
</g>
<g filter="url(#filter1_i_11_187)">
<circle cx="189" cy="152" r="51" fill="url(#paint2_linear_11_187)"/>
</g>
<path d="M430.041 268.239C430.324 267.284 431.676 267.284 431.959 268.239L435.193 279.164C435.275 279.44 435.471 279.667 435.732 279.788L445.038 284.092C445.811 284.45 445.811 285.55 445.038 285.908L435.732 290.212C435.471 290.333 435.275 290.56 435.193 290.836L431.959 301.761C431.676 302.716 430.324 302.716 430.041 301.761L426.807 290.836C426.725 290.56 426.529 290.333 426.268 290.212L416.962 285.908C416.189 285.55 416.189 284.45 416.962 284.092L426.268 279.788C426.529 279.667 426.725 279.44 426.807 279.164L430.041 268.239Z" fill="#F4B41A"/>
</g>
<defs>
<filter id="filter0_if_11_187" x="-188" y="202" width="716" height="716" filterUnits="userSpaceOnUse" color-interpolation-filters="sRGB">
<feFlood flood-opacity="0" result="BackgroundImageFix"/>
<feBlend mode="normal" in="SourceGraphic" in2="BackgroundImageFix" result="shape"/>
<feColorMatrix in="SourceAlpha" type="matrix" values="0 0 0 0 0 0 0 0 0 0 0 0 0 0 0 0 0 0 127 0" result="hardAlpha"/>
<feOffset dx="1.4" dy="2.8"/>
<feGaussianBlur stdDeviation="35"/>
<feComposite in2="hardAlpha" operator="arithmetic" k2="-1" k3="1"/>
<feColorMatrix type="matrix" values="0 0 0 0 0 0 0 0 0 0.113725 0 0 0 0 0.431373 0 0 0 1 0"/>
<feBlend mode="normal" in2="shape" result="effect1_innerShadow_11_187"/>
<feGaussianBlur stdDeviation="144" result="effect2_foregroundBlur_11_187"/>
</filter>
<filter id="filter1_i_11_187" x="138" y="101" width="103.02" height="104.04" filterUnits="userSpaceOnUse" color-interpolation-filters="sRGB">
<feFlood flood-opacity="0" result="BackgroundImageFix"/>
<feBlend mode="normal" in="SourceGraphic" in2="BackgroundImageFix" result="shape"/>
<feColorMatrix in="SourceAlpha" type="matrix" values="0 0 0 0 0 0 0 0 0 0 0 0 0 0 0 0 0 0 127 0" result="hardAlpha"/>
<feOffset dx="1.02" dy="2.04"/>
<feGaussianBlur stdDeviation="25.5"/>
<feComposite in2="hardAlpha" operator="arithmetic" k2="-1" k3="1"/>
<feColorMatrix type="matrix" values="0 0 0 0 0 0 0 0 0 0.113725 0 0 0 0 0.431373 0 0 0 1 0"/>
<feBlend mode="normal" in2="shape" result="effect1_innerShadow_11_187"/>
</filter>
<linearGradient id="paint0_linear_11_187" x1="801.533" y1="926" x2="826.246" y2="1029.25" gradientUnits="userSpaceOnUse">
<stop stop-color="#5404FF"/>
<stop offset="0.819014" stop-color="#BD3BD2" stop-opacity="0.94"/>
</linearGradient>
<linearGradient id="paint1_linear_11_187" x1="107" y1="587.3" x2="237.402" y2="593.443" gradientUnits="userSpaceOnUse">
<stop stop-color="#5404FF"/>
<stop offset="0.899616" stop-color="#BA2AD1"/>
</linearGradient>
<linearGradient id="paint2_linear_11_187" x1="143.1" y1="171.89" x2="238.108" y2="176.365" gradientUnits="userSpaceOnUse">
<stop stop-color="#5404FF"/>
<stop offset="0.899616" stop-color="#BA2AD1"/>
</linearGradient>
<clipPath id="clip0_11_187">
<rect width="1440" height="1287" fill="white"/>
</clipPath>
</defs>
</svg>
